<?xml version="1.0" encoding="UTF-8"?>
<svg id="Layer_1" data-name="Layer 1" xmlns="http://www.w3.org/2000/svg" viewBox="0 0 206.7 89.44">
  <path d="m102.58,48.48c-1.62-.06-3.23-.15-4.71-.97-.82-.46-1.66-.07-2.42.26-.66.29-1.33.51-2.05.62-.4.06-.87.1-1.12.42-1.08,1.4-2.87,1.24-4.24,1.98-.1.05-.27.08-.36.03-1.7-.84-3.93-.53-5.16-2.46-.46-.71-1.25-.67-1.89-.12-1.13.98-2.29,1.92-3.4,2.91-1.49,1.34-3.17,2.41-4.71,3.66-1.33,1.08-2.92,1.64-4.26,2.63-.2.14-.47.33-.67.29-1.33-.25-2.64.19-3.99,0-2.42-.33-6.47.73-7.62,4.11-.64,1.9-1.78,3.61-2.72,5.4-.83,1.57-1.94,3.06-2.23,4.9-.03.21-.09.49-.23.6-1.02.72-1.12,1.81-1.24,2.91,0,.06,0,.14-.04.18-.85,1.14-1.33,2.49-2.1,3.66-.32.48-.65.89-.71,1.47-.09.99-.41,1.86-1.02,2.67-.71.95-.58,2.15-.74,3.25-.13.95-.49,1.71-1.31,2.27-.59.4-1.05.4-1.56-.12-1.72-1.75-1.96-3.92-1.7-6.19.33-2.95,1.31-5.79,1.63-8.75.15-1.36.48-2.63,1.13-3.83.22-.4.37-.87.43-1.33.11-.83.24-1.61,1.07-2.05.1-.05.21-.19.22-.29.17-1.48,1.4-2.49,1.69-3.92.13-.66.42-1.31.91-1.83.2-.21.34-.46.22-.77-.14-.36-.47-.38-.78-.38-1.21,0-2.42-.08-3.59.44-.87.39-1.85.11-2.78.24-3.53.51-6.87.1-9.93-1.97-1.42-.96-3.11-1.43-4.73-1.98-1.42-.49-2.4-1.46-3.07-2.73-1.03-1.95-.07-4.46,1.83-5.63,1.19-.73,2.38-1.32,3.75-1.56.32-.06.6-.25.74-.53.42-.83,1.18-1.37,1.72-2.07,1.46-1.91,3.41-3.25,5.23-4.75,2.26-1.85,4.65-3.54,6.99-5.29,2.34-1.75,4.86-3.19,7.36-4.68.9-.53,1.78-1.11,2.64-1.71.62-.43,1.32-.73,1.91-1.15,2.27-1.63,5.1-2.22,7.28-3.99.16-.13.38-.24.58-.28,1.42-.29,2.59-1.22,3.98-1.58,2.5-.66,5.23,1.05,5.73,3.57.06.32-.02.62-.11.92-.82,2.75-2.5,4.84-4.84,6.43-.71.48-.76,1.21-.72,1.91.04.72.71.75,1.26.89,1.5.38,2.27-.63,2.97-1.62.8-1.14,1.43-2.42,2.18-3.58.93-1.42,1.79-2.91,2.84-4.26.52-.67.97-1.36,1.3-2.15.93-2.21,2.6-3.95,3.9-5.92.07-.1.19-.18.24-.29.9-2.17,2.53-3.9,3.59-5.97,1.23-2.39,2.75-4.6,4.14-6.88.72-1.18,1.8-2.1,2.87-2.93,1.11-.85,2.51-.72,3.74-.09,2.08,1.06,2.62,3.83,1.17,5.71-.23.3-.45.59-.57.96-.52,1.64-1.53,2.97-2.74,4.16-.19.19-.39.44-.46.69-.52,2-1.82,3.57-2.8,5.32-.68,1.21-1.5,2.34-2.24,3.48-.8,1.23-1.18,2.76-2.37,3.75-.07.06-.15.14-.16.23-.21,1.8-1.8,2.88-2.33,4.52-.17.52-.44,1.08-.83,1.45-1.52,1.49-2.22,3.52-3.55,5.14-.44.53-.76,1.14-.83,1.86-.02.25-.09.52.2.66.23.11.41-.04.59-.16,1.96-1.28,3.56-2.96,5.18-4.63.97-1,2.1-1.98,3.39-2.24,1.59-.32,3.33-.12,4.52,1.34.86,1.05,1.66,2.14,1.18,3.64-.08.26-.05.56-.04.84.02.61-.14,1.39.62,1.6.7.2,1.55.02,1.95-.61,1.2-1.92,3.11-3.24,4.27-5.2.49-.82,1.19-1.52,2.12-1.92.37-.16.77-.37.95-.74.31-.64.87-.75,1.46-.83.58-.08,1.1-.18,1.25-.9.09-.45.55-.47.91-.51,1.45-.17,2.95-.16,4.35-.52,1.16-.3,2.18-.08,3.28.12,2.11.39,3.61,1.69,3.8,3.69.25,2.58.72,5.29-1.28,7.66-1.45,1.72-2.81,3.47-4.53,4.95-.63.55-1.26.98-1.97,1.4-1,.59-1.74,1.63-3.07,1.6-.05,0-.13.07-.14.11-.25,1.38-1.42,1.01-2.28,1.2-.76.17-1.55.19-2.33.15Zm-52.02-8.07c1.06.03,1.72-.76,2.56-1.2,2.43-1.26,4.91-2.42,7.38-3.6.73-.35,1.31-.83,1.67-1.56.24-.5.21-.94-.11-1.4-.34-.48-.8-.59-1.31-.47-.73.16-1.44.4-2.03.9-.64.56-1.34,1-2.09,1.39-2.36,1.22-4.24,3.15-6.53,4.5-.36.21-.57.6-.4,1.05.15.4.52.39.87.39Z"/>
  <path d="m98.09,70.8c-1.13.07-2.26-.18-3.39-.42-1.72-.37-2.73-1.31-3.48-2.99-1.01-2.27-.59-4.34.58-6.14.98-1.51,2.04-3.07,3.49-4.24,2.1-1.7,4.08-3.58,6.56-4.77.67-.32,1.31-.72,2.01-.98.61-.23,1.24-.41,1.58-1.07.08-.16.35-.29.54-.32.72-.11,1.23-.34,1.54-1.12.22-.55,1.03-.46,1.59-.61.5-.14.99-.18.97-.89-.01-.38.3-.43.6-.42,1.03.04,1.89-.31,2.6-1.06.1-.11.25-.2.4-.24,2.94-.87,5.45-2.72,8.37-3.66.17-.06.38-.13.49-.27,1.09-1.39,2.56-.97,3.96-.84.55.05.74.37.65.91-.13.76-.39,1.39-1.04,1.91-1.45,1.13-3.14,1.88-4.57,3.06-1.18.98-2.68,1.56-3.62,2.86-.36.5-1.02.57-1.52.88-1.43.89-2.78,1.9-4.13,2.89-1.67,1.22-3.37,2.44-4.93,3.81-.82.72-1.7,1.36-2.55,2.04-.32.26-.64.56-.47,1.03.16.46.58.52,1,.53,1.38,0,2.7-.08,3.95-.85,1.23-.75,2.7-.66,4.09-.81,1.2-.13,2.44-.09,3.37-1.09.13-.14.39-.2.6-.22,3.11-.33,6.1-1.26,9.12-1.98,3.07-.74,6.19-1.32,9.2-2.37,1.44-.5,3.06-.49,4.6-.71.55-.08,1.21-.04,1.34-.77.12-.71.06-1.32-.54-1.95-2.58-2.73-5.47-5.2-7.5-8.43-.69-1.1-1.81-1.3-2.95-1.19-.73.07-1.28.07-1.64-.67-.16-.32-.49-.47-.82-.58-.89-.29-1.26-.93-1.29-1.85-.03-1.01.07-2.01.37-2.96.48-1.55.11-2.89-.83-4.13-.09-.12-.27-.23-.29-.36-.27-2.25-2.02-3.97-1.96-6.41.08-3.21-.11-6.43.24-9.63.06-.6.26-1.08.73-1.45.19-.15.4-.32.53-.53,1.15-1.82,2.96-2.7,4.86-3.44,1.22-.48,2.5-.44,3.78-.45.09,0,.21,0,.27.06,1.14,1,2.67,1.36,3.84,2.27,1.23.95,1.77,2.48,2.39,3.85.52,1.15.68,2.46.99,3.7.09.38.01.74-.07,1.11-.1.43-.2.93.05,1.28.6.84.35,1.67.1,2.51-.45,1.48-.45,3.02-.71,4.53-.08.45.07.86.3,1.25.3.49.63.71,1.08.16.31-.37.73-.46,1.18-.47.9-.03,1.81-.05,2.71-.06.41,0,.83.02,1.19-.17,1.13-.61,2.27-1.14,3.58-1.24.53-.04.8-.54.95-1.05.8-2.62,1.53-5.26,2.6-7.79.28-.66.36-1.39.38-2.11.04-1.47.98-2.25,2.2-2.73,1.23-.48,2.47-.67,3.51.52.53.61,1.13,1.16,1.5,1.9.48.98.62,2,.12,2.98-.92,1.79-.72,3.84-1.44,5.68-.2.52.28.77.73.9.86.25,1.73.11,2.6.09,6.07-.2,12.1-1.01,18.19-.9,2.9.05,5.77.39,8.65.69,1.52.16,3.05.2,4.57.27,1.23.05,2.39.24,3.51.83,1.37.72,2.89.66,4.39.68.82,0,2.73,1.31,3,2.05.07.19.05.36-.04.54-.48.9-2.2,1.75-3.24,1.61-1.11-.15-2.21-.37-3.3-.66-1.87-.5-3.8-.51-5.65-.02-2.05.55-4.12.59-6.2.77-2.77.23-5.54.12-8.31.31-3.46.23-6.85.94-10.27,1.4-1.75.23-3.49.63-5.28.52-.21-.01-.5-.04-.63.08-1.06.96-2.41.65-3.64.87-.37.07-.73.16-1.09.23-1.38.29-2.09,1.17-2.15,2.56-.04.97-.23,1.83-1.06,2.48-.42.33-.4.89-.45,1.39-.12,1.15-.21,2.3-1.09,3.21-.18.19-.25.5-.34.76-.33.99-.53,2.01-1.17,2.92-.56.8-.62,1.82.05,2.73.63.85.89,1.85.99,2.89.11,1.3.14,2.57-1.08,3.48-.24.18-.38.49-.55.75-.56.82-1.28,1.39-2.22,1.78-2.97,1.23-6.08,1.7-9.25,1.96-.47.04-.95.06-1.36.29-1.26.7-2.63.92-4.04,1.01-1.05.07-2.08.15-2.94.98-.44.42-1.18.35-1.79.41-1.83.18-3.63.39-5.35,1.18-.88.41-1.93.48-2.9.7-.7.16-1.4.34-1.94.86-.27.26-.62.28-.96.31-.99.08-1.99.1-2.98.2-1.22.13-2.5.06-3.55.93-.22.18-.58.24-.89.26-3.81.29-7.34,1.96-11.14,2.29-.9.08-1.79.26-2.73.22Zm51.01-32.96c0-.12,0-.25,0-.37-.05-1.63-.32-1.81-1.82-1.14-.87.39-1.63,1.05-2.69.91-.64-.09-1.33-.06-1.56.68-.26.81-.16,1.64.54,2.23,1.08.91,2,1.96,2.75,3.14.49.77,1.13.43,1.75.35.61-.08.81-.49.83-1.05.06-1.58-.29-3.17.19-4.73Zm-17.13-18.19c.09,1.72-.02,3.3,1.52,4.28.25.16.41.53.78.4.38-.14.41-.51.45-.86.16-1.31-.08-2.52-.72-3.69-.34-.62-.48-1.34-.75-2.01-.1-.26-.29-.51-.62-.49-.34.02-.46.31-.49.6-.08.65-.12,1.3-.17,1.76Z"/>
  <path d="m17.08,53.57c0,.54-.03.86,0,1.17.08.81-.2,1.32-1.05,1.47-.3.05-.59.21-.86.35-.99.53-1.94.71-2.98.04-.56-.36-1.27-.49-1.92-.7-.64-.21-.96-.64-1.03-1.3-.11-1.03-.07-2.05.02-3.08.04-.5.25-.95.75-1.09,1.9-.5,3.76-.97,5.67.12,1.36.78,1.58,1.88,1.39,3.01Z"/>
  <path d="m0,56.6c.03-.38.05-.69.07-1,.07-.78.46-1.16,1.28-1.12.8.04,1.61-.03,2.41.19.43.12.71.32.76.81.2,1.68-.99,3.21-2.69,3.43-1.16.15-1.52-.1-1.72-1.27-.07-.37-.08-.74-.11-1.05Z"/>
</svg>